# xmcd CD database file
#
# Track frame offsets:
#	150
#	14993
#	31463
#	43662
#	63943
#	86106
#	109545
#	133781
#	149112
#	162061
#	177068
#	200486
#	214219
#	231297
#	248776
#	257718
#	268671
#
# Disc length: 3784 seconds
#
# Revision: 1
# Processed by: cddbd v1.5.2PL0 Copyright (c) Steve Scherf et al.
# Submitted via: CDex 1.51
#
DISCID=010ec611
DTITLE=Various Artist - Goin' Down South - Blues Sampler Vol. 2
DYEAR=2004
DGENRE=Blues
TTITLE0=Robert Belfour - Old Black Mattie
TTITLE1=Blind Mississippi Morris and Brad Webb - Country Days
TTITLE2=Daddy Mack Orr - Goin' Back To Memphis
TTITLE3=McCarty Hite Project - So Many Roads, So Many Trains
TTITLE4=Richard Johnston and Jessie Mae Hamphill - Chicken And Gravy
TTITLE5=Willie Foster - Hoochie Coochie Man
TTITLE6=Fred Sanders - I Got A Feeling
TTITLE7=David Evans - Railroad Blues
TTITLE8=Sid Selvidge - Mama You Don't Mean Me No Good
TTITLE9=Billy Gibson - Bad Boy
TTITLE10=Phil Durham - Steal Away
TTITLE11="Papa" Don McMinn - Junior's Place
TTITLE12=Doc Tomato - I've Kissed My Last Ass
TTITLE13=Andy Cohen - Mississippi Heavy Water Blues
TTITLE14=Mose Vinson - Rock 'n' Roll Blues
TTITLE15=Jessie Mae Hamphill - Lord, Help The Poor And Needy
TTITLE16=Big Lucky Carter - Swing Low, Sweet Chariot
EXTD=YEAR: 2004
EXTT0=
EXTT1=
EXTT2=
EXTT3=
EXTT4=
EXTT5=
EXTT6=
EXTT7=
EXTT8=
EXTT9=
EXTT10=
EXTT11=
EXTT12=
EXTT13=
EXTT14=
EXTT15=
EXTT16=
PLAYORDER=
